<svg width="6" height="12" viewBox="0 0 6 12" fill="none" xmlns="http://www.w3.org/2000/svg">
<path d="M5.99506 5.5203C5.97714 5.39598 5.92047 5.28068 5.83324 5.1904L1.05401 0.212038C0.947887 0.0863275 0.794536 0.00993105 0.630353 0.000902441C0.466028 -0.00812653 0.305315 0.0509064 0.185998 0.164257C0.0666781 0.277464 -0.000551219 0.434984 3.34501e-06 0.599437C0.000559339 0.764039 0.0689006 0.921003 0.189054 1.03351L4.57641 5.60116L0.189054 10.1688C0.0689007 10.2813 0.000558501 10.4383 3.4643e-06 10.6029C-0.000552049 10.7673 0.0666782 10.9249 0.185999 11.0381C0.305319 11.1514 0.466032 11.2104 0.630353 11.2014C0.79454 11.1924 0.947891 11.116 1.05401 10.9903L5.83324 6.01192C5.95895 5.88107 6.01854 5.70022 5.99492 5.52034L5.99506 5.5203Z" fill="white"/>
</svg>
