<svg width="46" height="60" viewBox="0 0 46 60" fill="none" xmlns="http://www.w3.org/2000/svg">
<path d="M7.73602 24.2917L20.2887 9.75284" stroke="black" stroke-width="2" stroke-linecap="round"/>
<path d="M12.344 26.8613L24.885 17.0223" stroke="black" stroke-width="2" stroke-linecap="round"/>
<path d="M12.344 4.98596L6.78268 22.0671" stroke="black" stroke-width="2" stroke-linecap="round"/>
<path d="M3.40945 2.86417C3.40945 2.86417 21.2537 5.48569 24.4132 14.2682C26.4815 20.0175 22.7675 29.8271 22.7675 29.8271C22.7675 29.8271 16.4645 43.1726 20.6561 49.8037C24.3826 55.6989 36.9403 57.1358 36.9403 57.1358" stroke="black" stroke-width="4" stroke-linecap="round"/>
<path d="M5.79257 18.3282C5.79257 18.3282 5.81477 21.7317 7.34476 23.6894C11.1072 28.5036 21.3869 30.5891 21.3869 30.5891C21.3869 30.5891 36.0383 32.3685 39.4152 39.4493C42.4173 45.7443 39.4152 50.482 39.4152 50.482" stroke="#242424" stroke-width="3" stroke-linecap="round"/>
<path d="M25.8208 53.9535L39.4606 40.6134" stroke="black" stroke-width="2" stroke-linecap="round" stroke-linejoin="round"/>
</svg>
