<svg width="44" height="56" viewBox="0 0 44 56" fill="none" xmlns="http://www.w3.org/2000/svg">
<path d="M8.64132 26.4756L4.44112 24.3077L6.74445 29.3209H4.44112L5.93151 31.4887L0.105408 34.334L5.93151 36.2309L2.54424 37.9923L5.93151 38.9407L0.782865 43.1409H5.93151L4.44112 46.6637H8.64132L7.82838 50.4574L11.4866 48.8315L12.7155 50.8987L14.4546 49.6379L15.9762 55.5072L19.3239 50.4574L21.0195 53.0725L22.1934 51.1596L24.1933 54.2899L25.1932 49.377L28.0627 49.6379L27.8018 47.5076L32.4103 48.5945L30.8452 44.0729L33.4538 43.5947L32.019 41.247L36.5406 38.9427L32.6277 36.595L36.5406 33.0299L33.4538 31.943C36.6099 28.1381 43.1078 18.7257 43.85 11.5155C44.7021 3.2382 33.1316 -4.88842 27.4746 5.12895C26.3851 7.05823 26.2215 9.47737 27.291 11.4178C29.9374 16.2189 35.0156 15.5081 37.8484 13.0674C40.8526 10.479 37.7084 5.22433 33.8771 6.24683C31.2556 6.94645 30.0295 9.82092 32.0298 12.6345C29.6507 12.1202 27.4563 10.8285 28.3741 7.21496C29.2918 3.60139 35.9758 0.461733 40.2777 6.59907C43.7192 11.5089 35.0731 19.457 30.3198 22.8173V19.4301L26.1196 22.8173L25.0357 19.4301L22.4614 22.8173L20.429 18.3462L17.5837 22.8173L16.3643 20.514L15.2804 22.8173L11.4866 19.4301V24.3077L8.64132 22.8173V26.4756Z" fill="black"/>
<circle cx="19.1102" cy="36.4755" r="8.58886" stroke="white"/>
</svg>
