<svg width="46" height="46" viewBox="0 0 46 46" fill="none" xmlns="http://www.w3.org/2000/svg">
<rect width="46" height="46" fill="#1E1E1E"/>
<g id="Frame 1">
<rect width="60" height="60" transform="translate(-7 -7)" fill="white"/>
<g id="Group 7">
<g id="Group 3">
<path id="Ellipse 13" d="M17.9241 20.4109C17.9241 22.878 15.9241 24.878 13.4571 24.878C10.99 24.878 8.99005 22.878 8.99005 20.4109C8.99005 17.9439 10.99 15.9439 13.4571 15.9439C15.9241 15.9439 17.9241 17.9439 17.9241 20.4109ZM25.2718 11.8385C25.2718 14.3056 23.2719 16.3055 20.8048 16.3055C18.3378 16.3055 16.3378 14.3056 16.3378 11.8385C16.3378 9.37145 18.3378 7.37151 20.8048 7.37151C23.2719 7.37151 25.2718 9.37145 25.2718 11.8385ZM35.2058 16.8055C35.2058 19.2726 33.2059 21.2725 30.7388 21.2725C28.2718 21.2725 26.2718 19.2726 26.2718 16.8055C26.2718 14.3385 28.2718 12.3385 30.7388 12.3385C33.2059 12.3385 35.2058 14.3385 35.2058 16.8055ZM23.3124 30.345C23.3124 32.812 21.3125 34.812 18.8454 34.812C16.3784 34.812 14.3784 32.812 14.3784 30.345C14.3784 27.8779 16.3784 25.878 18.8454 25.878C21.3125 25.878 23.3124 27.8779 23.3124 30.345ZM34.4157 28.0036C34.4157 30.4707 32.4157 32.4706 29.9487 32.4706C27.4816 32.4706 25.4817 30.4707 25.4817 28.0036C25.4817 25.5366 27.4816 23.5366 29.9487 23.5366C32.4157 23.5366 34.4157 25.5366 34.4157 28.0036Z" fill="black" stroke="black"/>
</g>
<g id="Group 4">
<circle id="Ellipse 14" cx="8.80777" cy="12.8921" r="2.43469" fill="black" stroke="black"/>
<circle id="Ellipse 16" cx="9.78949" cy="31.414" r="2.43469" fill="black" stroke="black"/>
<circle id="Ellipse 15" cx="27.0291" cy="5.58037" r="2.43469" fill="black" stroke="black"/>
<circle id="Ellipse 18" cx="28.4036" cy="36.8646" r="2.43469" fill="black" stroke="black"/>
<circle id="Ellipse 17" cx="39.5298" cy="20.2408" r="2.43469" fill="black" stroke="black"/>
</g>
<g id="Group 5">
<path id="Ellipse 14_2" d="M10.5678 7.38568C10.3796 8.07231 9.65535 8.48681 8.93777 8.29021C8.22018 8.09361 7.8083 7.36783 7.99642 6.6812C8.18454 5.99456 8.90883 5.58006 9.62641 5.77666C10.344 5.97326 10.7559 6.69904 10.5678 7.38568Z" fill="black" stroke="black"/>
<path id="Ellipse 16_2" d="M5.79649 29.2913C5.60837 29.9779 4.88408 30.3924 4.1665 30.1958C3.44891 29.9992 3.03703 29.2734 3.22515 28.5868C3.41327 27.9002 4.13756 27.4857 4.85514 27.6823C5.57273 27.8789 5.98461 28.6046 5.79649 29.2913Z" fill="black" stroke="black"/>
<path id="Ellipse 15_2" d="M34.1448 4.68161C33.9567 5.36824 33.2324 5.78274 32.5148 5.58614C31.7972 5.38954 31.3854 4.66376 31.5735 3.97712C31.7616 3.29049 32.4859 2.87599 33.2035 3.07259C33.9211 3.26919 34.3329 3.99497 34.1448 4.68161Z" fill="black" stroke="black"/>
<path id="Ellipse 18_2" d="M25.7552 41.5906C25.5671 42.2772 24.8428 42.6917 24.1252 42.4951C23.4076 42.2985 22.9957 41.5727 23.1839 40.8861C23.372 40.1995 24.0963 39.785 24.8139 39.9816C25.5314 40.1782 25.9433 40.9039 25.7552 41.5906Z" fill="black" stroke="black"/>
<path id="Ellipse 17_2" d="M44.0352 25.7647C43.8471 26.4513 43.1228 26.8658 42.4052 26.6692C41.6876 26.4726 41.2757 25.7468 41.4639 25.0602C41.652 24.3736 42.3763 23.9591 43.0939 24.1557C43.8114 24.3523 44.2233 25.0781 44.0352 25.7647Z" fill="black" stroke="black"/>
</g>
<g id="Group 6">
<g id="Ellipse 14_3">
<mask id="path-12-inside-1_0_1" fill="white">
<ellipse cx="14.7451" cy="2.11869" rx="0.923901" ry="0.908798" transform="rotate(33.4716 14.7451 2.11869)"/>
</mask>
<ellipse cx="14.7451" cy="2.11869" rx="0.923901" ry="0.908798" transform="rotate(33.4716 14.7451 2.11869)" fill="black"/>
<path d="M14.6817 2.07672C14.718 2.0218 14.7734 2.02804 14.7954 2.04262L13.6924 3.71094C14.5657 4.28835 15.76 4.07205 16.35 3.17977L14.6817 2.07672ZM14.7954 2.04262C14.8175 2.05719 14.8449 2.10574 14.8086 2.16066L13.1403 1.05762C12.5503 1.9499 12.8191 3.13353 13.6924 3.71094L14.7954 2.04262ZM14.8086 2.16066C14.7723 2.21559 14.7169 2.20935 14.6948 2.19477L15.7979 0.526452C14.9246 -0.0509588 13.7302 0.165339 13.1403 1.05762L14.8086 2.16066ZM14.6948 2.19477C14.6728 2.1802 14.6453 2.13165 14.6817 2.07672L16.35 3.17977C16.9399 2.28749 16.6712 1.10386 15.7979 0.526452L14.6948 2.19477Z" fill="black" mask="url(#path-12-inside-1_0_1)"/>
</g>
<g id="Ellipse 16_3">
<mask id="path-14-inside-2_0_1" fill="white">
<ellipse cx="2.00615" cy="23.799" rx="0.923901" ry="0.908798" transform="rotate(33.4716 2.00615 23.799)"/>
</mask>
<ellipse cx="2.00615" cy="23.799" rx="0.923901" ry="0.908798" transform="rotate(33.4716 2.00615 23.799)" fill="black"/>
<path d="M1.94267 23.7571C1.97899 23.7021 2.03441 23.7084 2.05645 23.7229L0.953405 25.3913C1.82672 25.9687 3.02104 25.7524 3.61099 24.8601L1.94267 23.7571ZM2.05645 23.7229C2.0785 23.7375 2.10594 23.7861 2.06963 23.841L0.401312 22.7379C-0.188639 23.6302 0.0800913 24.8139 0.953405 25.3913L2.05645 23.7229ZM2.06963 23.841C2.03332 23.8959 1.9779 23.8897 1.95585 23.8751L3.0589 22.2068C2.18558 21.6294 0.991262 21.8457 0.401312 22.7379L2.06963 23.841ZM1.95585 23.8751C1.93381 23.8605 1.90636 23.812 1.94267 23.7571L3.61099 24.8601C4.20094 23.9678 3.93221 22.7842 3.0589 22.2068L1.95585 23.8751Z" fill="black" mask="url(#path-14-inside-2_0_1)"/>
</g>
<g id="Ellipse 15_3">
<mask id="path-16-inside-3_0_1" fill="white">
<ellipse cx="40.8188" cy="7.47424" rx="0.923901" ry="0.908798" transform="rotate(33.4716 40.8188 7.47424)"/>
</mask>
<ellipse cx="40.8188" cy="7.47424" rx="0.923901" ry="0.908798" transform="rotate(33.4716 40.8188 7.47424)" fill="black"/>
<path d="M40.7553 7.43227C40.7916 7.37734 40.847 7.38359 40.8691 7.39816L39.766 9.06648C40.6393 9.64389 41.8337 9.42759 42.4236 8.53532L40.7553 7.43227ZM40.8691 7.39816C40.8911 7.41274 40.9186 7.46129 40.8823 7.51621L39.2139 6.41316C38.624 7.30544 38.8927 8.48907 39.766 9.06648L40.8691 7.39816ZM40.8823 7.51621C40.8459 7.57113 40.7905 7.56489 40.7685 7.55032L41.8715 5.882C40.9982 5.30459 39.8039 5.52088 39.2139 6.41316L40.8823 7.51621ZM40.7685 7.55032C40.7464 7.53574 40.719 7.48719 40.7553 7.43227L42.4236 8.53532C43.0136 7.64304 42.7448 6.45941 41.8715 5.882L40.7685 7.55032Z" fill="black" mask="url(#path-16-inside-3_0_1)"/>
</g>
<g id="Ellipse 18_3">
<mask id="path-18-inside-4_0_1" fill="white">
<ellipse cx="18.9812" cy="43.8813" rx="0.923901" ry="0.908798" transform="rotate(33.4716 18.9812 43.8813)"/>
</mask>
<ellipse cx="18.9812" cy="43.8813" rx="0.923901" ry="0.908798" transform="rotate(33.4716 18.9812 43.8813)" fill="black"/>
<path d="M18.9178 43.8393C18.9541 43.7844 19.0095 43.7907 19.0315 43.8052L17.9285 45.4736C18.8018 46.051 19.9961 45.8347 20.5861 44.9424L18.9178 43.8393ZM19.0315 43.8052C19.0536 43.8198 19.081 43.8684 19.0447 43.9233L17.3764 42.8202C16.7865 43.7125 17.0552 44.8961 17.9285 45.4736L19.0315 43.8052ZM19.0447 43.9233C19.0084 43.9782 18.953 43.972 18.9309 43.9574L20.034 42.2891C19.1607 41.7117 17.9664 41.928 17.3764 42.8202L19.0447 43.9233ZM18.9309 43.9574C18.9089 43.9428 18.8815 43.8943 18.9178 43.8393L20.5861 44.9424C21.176 44.0501 20.9073 42.8665 20.034 42.2891L18.9309 43.9574Z" fill="black" mask="url(#path-18-inside-4_0_1)"/>
</g>
<g id="Ellipse 17_3">
<mask id="path-20-inside-5_0_1" fill="white">
<ellipse cx="43.9938" cy="33.4007" rx="0.923901" ry="0.908798" transform="rotate(33.4716 43.9938 33.4007)"/>
</mask>
<ellipse cx="43.9938" cy="33.4007" rx="0.923901" ry="0.908798" transform="rotate(33.4716 43.9938 33.4007)" fill="black"/>
<path d="M43.9303 33.3587C43.9666 33.3038 44.022 33.31 44.0441 33.3246L42.941 34.9929C43.8144 35.5703 45.0087 35.354 45.5986 34.4618L43.9303 33.3587ZM44.0441 33.3246C44.0661 33.3392 44.0936 33.3877 44.0573 33.4427L42.389 32.3396C41.799 33.2319 42.0677 34.4155 42.941 34.9929L44.0441 33.3246ZM44.0573 33.4427C44.021 33.4976 43.9655 33.4913 43.9435 33.4768L45.0465 31.8084C44.1732 31.231 42.9789 31.4473 42.389 32.3396L44.0573 33.4427ZM43.9435 33.4768C43.9214 33.4622 43.894 33.4136 43.9303 33.3587L45.5986 34.4618C46.1886 33.5695 45.9199 32.3859 45.0465 31.8084L43.9435 33.4768Z" fill="black" mask="url(#path-20-inside-5_0_1)"/>
</g>
</g>
</g>
</g>
</svg>
