<svg width="40" height="57" viewBox="0 0 40 57" fill="none" xmlns="http://www.w3.org/2000/svg">
<path d="M38.1098 26.8877C38.1003 36.375 31.376 41.014 22.4234 41.9075C22.4234 41.9075 19.6118 42.0777 18.6517 42.0767C8.3001 42.0664 0.612878 37.3076 0.623308 26.8503C0.633738 16.3931 7.90276 1.44834 18.2544 1.45866C28.606 1.46899 38.1202 16.4305 38.1098 26.8877Z" fill="#010000" stroke="black"/>
<path d="M18.9235 43.7854L14.7439 51.3663C14.3764 52.0327 14.8585 52.8491 15.6196 52.8491L23.0203 52.8491C23.7368 52.8491 24.2209 52.1175 23.9406 51.458L20.7196 43.8771C20.3934 43.1095 19.3262 43.055 18.9235 43.7854Z" fill="black" stroke="black"/>
<path d="M18.5006 11.5857L18.6568 5.71352L19.9857 12.1916L24.288 10.0283L20.2117 14.5238L20.401 22.5733L28.7924 18.0252L20.287 26.8446L21.3352 36.3004L33.5372 28.5223L22.3123 40.8892C21.69 41.5748 20.8072 41.9658 19.8812 41.9658C18.922 41.9658 18.0107 41.5463 17.3869 40.8175L5.74096 27.2107L18.3698 36.0598L18.5276 27.1644L11.4476 17.8915L18.5685 24.0451L18.4852 13.8193L14.0703 8.99389L18.5006 11.5857Z" fill="white" stroke="black"/>
</svg>
