<svg width="44" height="56" viewBox="0 0 44 56" fill="none" xmlns="http://www.w3.org/2000/svg">
<path d="M15.2934 5.23494C16.5146 0.316657 20.4211 2.48085 22.2216 4.17774C26.8801 3.94711 28.0727 7.70572 27.8629 11.5062C35.5204 13.545 33.304 18.2231 32.285 22.3271C35.3187 23.7041 36.8147 26.2495 37.1836 27.3501C37.699 30.7541 37.0911 38.5468 30.5362 42.4856C23.9813 46.4243 22.1294 41.4945 22.0228 38.5373L29.2606 31.5575L21.1497 37.2509L20.5349 28.9952L29.9959 17.6152L20.2988 27.1937L20.3642 14.4447L19.1815 23.5616L12.1661 16.8732L18.8224 25.0078L19.2458 31.4346L13.637 27.6783L19.3856 33.6243L19.521 36.8465L15.543 35.495L19.9896 39.1457C18.9574 43.9306 13.552 44.9792 10.5643 42.5725C-0.97184 33.28 2.84529 30.7886 8.56109 22.4601C5.49759 16.9751 6.29905 16.3966 11.0506 12.4334C10.1424 7.90215 11.5332 6.15439 15.2934 5.23494Z" fill="black" stroke="black"/>
<path d="M18.1817 52.553L19.98 41.3438C20.1583 40.2324 21.7522 40.2172 21.9516 41.325L23.9981 52.6946C24.1115 53.3247 23.6118 53.8976 22.9722 53.8709L19.1274 53.7105C18.5292 53.6856 18.0869 53.1441 18.1817 52.553Z" fill="black"/>
</svg>
