<svg width="44" height="44" viewBox="0 0 44 44" fill="none" xmlns="http://www.w3.org/2000/svg">
<rect width="44" height="44" fill="#1E1E1E"/>
<g id="planet">
<rect width="60" height="60" transform="translate(-8 -8)" fill="white"/>
<path id="Union" fill-rule="evenodd" clip-rule="evenodd" d="M40.6819 19.2652L40.6821 19.2666L40.6814 19.2654L40.6819 19.2652ZM40.2488 17.1466C40.2404 17.1565 40.232 17.1665 40.2239 17.1767C40.0951 17.3377 40.0075 17.3816 39.9704 17.3961C39.9325 17.4108 39.871 17.4245 39.7485 17.4087C39.6141 17.3914 39.4446 17.344 39.2057 17.2575C39.0976 17.2184 38.9874 17.1758 38.8638 17.1281L38.8315 17.1157C38.6987 17.0644 38.5521 17.0081 38.4009 16.9545C37.8458 16.7579 37.1252 16.7219 36.4954 16.7851C35.8863 16.8463 35.1141 17.0245 34.5706 17.4691C34.2855 17.7024 34.1428 17.984 34.0649 18.2052C34.0279 18.3103 33.997 18.4337 33.9761 18.5253C33.6773 18.5803 33.2817 18.5839 33.0032 18.5256C32.8752 18.4988 32.7425 18.4692 32.6053 18.4387C32.124 18.3314 31.5883 18.2121 31.0121 18.1585C30.9462 18.1269 30.8368 18.0758 30.7292 18.0373C30.6632 18.0138 30.5504 17.9771 30.4162 17.9604C30.3146 17.9477 29.9985 17.9177 29.6826 18.1204C29.2778 18.38 29.1899 18.7966 29.1978 19.0529C29.2046 19.2724 29.2746 19.4518 29.317 19.5486C29.6714 20.3587 30.3167 20.9302 30.8209 21.3521C30.9178 21.4332 31.0097 21.5091 31.0968 21.581C31.5207 21.9312 31.8318 22.1882 32.0586 22.4945C32.2086 22.6969 32.3905 22.8608 32.5214 22.9735C32.6015 23.0426 32.6575 23.0889 32.7067 23.1296L32.7068 23.1296L32.7068 23.1297C32.7652 23.178 32.8141 23.2184 32.8826 23.2796C32.9496 23.3396 32.9907 23.3819 33.0153 23.4103C33.0214 23.6379 33.0186 23.8556 33.0156 24.0929C33.0137 24.2405 33.0117 24.3957 33.0117 24.5655C33.0117 25.2689 32.8226 25.6954 32.3493 26.0959C32.2393 26.189 32.1659 26.2345 32.1148 26.2579C32.0776 26.2749 32.047 26.2829 32.0106 26.2847L31.9375 26.2779C31.8749 26.2721 31.7591 26.2619 31.635 26.2648C31.5326 26.2673 31.2978 26.2788 31.0564 26.3974C30.9219 26.4635 30.7599 26.5752 30.63 26.7589C30.4954 26.949 30.4341 27.1615 30.4261 27.3621C30.3908 28.2445 30.1841 29.312 29.9301 30.2192C29.8206 30.6104 29.5411 31.1171 29.2508 31.6306C29.1866 31.7443 29.1284 31.8522 29.0708 31.959L29.0707 31.9592L29.0706 31.9593L29.0706 31.9594C28.9718 32.1424 28.875 32.3219 28.7534 32.52C28.5569 32.8399 28.4234 32.9832 28.3734 33.0176C27.9881 33.2825 27.4152 33.765 27.0828 34.222C26.9692 34.3782 26.8829 34.5304 26.8182 34.6494L26.7881 34.7052C26.7563 34.7151 26.7282 34.7252 26.7042 34.7346C26.5379 34.7993 26.3939 34.8945 26.284 34.9761C26.1717 35.0595 26.0417 35.1619 25.9116 35.2767C25.6357 35.2634 25.3524 35.2411 25.0598 35.2155C24.9579 35.2066 24.8538 35.1972 24.7483 35.1876C24.4106 35.1569 24.059 35.125 23.7199 35.1049C23.6859 35.0829 23.6374 35.0481 23.5583 34.9886L23.5306 34.9677L23.5306 34.9677L23.5305 34.9676C23.442 34.9008 23.3113 34.8021 23.1747 34.7172C23.0416 34.6344 22.8571 34.5345 22.6319 34.4732C22.5931 34.446 22.5389 34.4034 22.4728 34.3454C22.3253 34.2162 22.1829 34.0681 22.1196 33.9968C22.1111 33.9873 22.068 33.9277 22.0322 33.7674C21.9977 33.613 21.9837 33.4268 21.9837 33.2296C21.9837 32.9028 21.9567 32.588 21.9336 32.3193L21.9321 32.3019C21.9076 32.0162 21.8879 31.7786 21.8879 31.5426V31.5378V31.533V31.5283V31.5235V31.5188V31.514V31.5092V31.5045V31.4997V31.495V31.4902V31.4854V31.4807V31.4759V31.4712V31.4664V31.4616V31.4569V31.4521V31.4473V31.4426V31.4378V31.4331V31.4283V31.4235V31.4188V31.414V31.4093V31.4045V31.3997V31.395V31.3902V31.3855V31.3807V31.3759V31.3712V31.3664V31.3617V31.3569V31.3521V31.3474V31.3426V31.3379V31.3331V31.3283V31.3236V31.3188V31.3141V31.3093V31.3045V31.2998V31.295V31.2902V31.2855V31.2807V31.276V31.2712V31.2664V31.2617V31.2569V31.2522V31.2474V31.2426V31.2379V31.2331V31.2284V31.2236V31.2188V31.2141V31.2093V31.2046V31.1998V31.195V31.1903V31.1855V31.1808V31.176V31.1712V31.1665V31.1617V31.157V31.1522V31.1474V31.1427V31.1379V31.1332V31.1284V31.1236V31.1189V31.1141V31.1093V31.1046V31.0998V31.0951V31.0903V31.0855V31.0808V31.076V31.0713V31.0665V31.0617V31.057V31.0522V31.0475V31.0427V31.0379V31.0332V31.0284V31.0237V31.0189V31.0141V31.0094V31.0046V30.9999V30.9951V30.9903V30.9856V30.9808V30.976V30.9713V30.9665V30.9618V30.957V30.9522V30.9475V30.9427V30.938V30.9332V30.9284V30.9237V30.9189V30.9142V30.9094V30.9046V30.8999V30.8951V30.8904V30.8856V30.8808V30.8761V30.8713V30.8666V30.8618V30.857V30.8523V30.8475V30.8428V30.838V30.8332V30.8285V30.8237V30.8189V30.8142V30.8094V30.8047V30.7999V30.7951V30.7904V30.7856V30.7809V30.7761V30.7713V30.7666V30.7618V30.7571V30.7523V30.7475V30.7428V30.738V30.7333V30.7285V30.7237V30.719V30.7142V30.7095V30.7047V30.6999V30.6952V30.6904V30.6857V30.6809V30.6761V30.6714V30.6666V30.6618V30.6571V30.6523V30.6476V30.6428V30.638V30.6333V30.6285V30.6238V30.619V30.6142V30.6095V30.6047V30.6V30.5952V30.5904V30.5857V30.5809V30.5762V30.5714V30.5666V30.5619V30.5571V30.5524V30.5476V30.5428V30.5381V30.5333V30.5286V30.5238V30.519V30.5143V30.5095V30.5047V30.5V30.4952V30.4905V30.4857V30.4809V30.4762V30.4714V30.4667V30.4619V30.4571V30.4524V30.4476V30.4429V30.4381V30.4333V30.4286V30.4238V30.4191V30.4143V30.4095V30.4048V30.4V30.3953V30.3905V30.3857V30.381V30.3762V30.3715V30.3667V30.3619V30.3572V30.3524V30.3476V30.3429V30.3381V30.3334V30.3286V30.3238V30.3191V30.3143V30.3096V30.3048V30.3V30.2953V30.2905V30.2858V30.281V30.2762V30.2715V30.2667V30.262V30.2572V30.2524V30.2477V30.2429V30.2382V30.2334V30.2286V30.2239V30.2191V30.2144V30.2096V30.2048V30.2001V30.1953V30.1905V30.1858V30.181V30.1763V30.1715V30.1667V30.162V30.1572V30.1525V30.1477V30.1429V30.1382V30.1334V30.1287V30.1239V30.1191V30.1144V30.1096V30.1049V30.1001V30.0953V30.0906V30.0858V30.0811V30.0763V30.0715V30.0668V30.062V30.0573V30.0525V30.0477V30.043V30.0382V30.0334V30.0287V30.0239V30.0192V30.0144V30.0096V30.0049V30.0001V29.9954V29.9906V29.9858V29.9811V29.9763V29.9716V29.9668V29.962V29.9573V29.9525V29.9478V29.943V29.9382V29.9335V29.9287V29.924V29.9192V29.9144V29.9097V29.9049V29.9002V29.8954V29.8906V29.8859V29.8811V29.8763V29.8716V29.8668V29.8621V29.8573V29.8525V29.8478V29.843V29.8383V29.8335V29.8287V29.824V29.8192V29.8145V29.8097V29.8049V29.8002V29.7954V29.7907V29.7859V29.7811V29.7764V29.7716V29.7669V29.7621V29.7573V29.7526V29.7478V29.743V29.7383V29.7335V29.7288V29.724V29.7192V29.7145V29.7097V29.705V29.7002V29.6954V29.6907V29.6859V29.6812V29.6764V29.6716V29.6669V29.6621V29.6574V29.6526V29.6478V29.6431V29.6383V29.6336V29.6288V29.624V29.6193V29.6145V29.6098V29.605V29.6002V29.5955V29.5907V29.5859V29.5812V29.5764V29.5717V29.5669V29.5621V29.5574V29.5526V29.5479V29.5431V29.5383V29.5336V29.5288V29.5241V29.5193V29.5145V29.5098V29.505V29.5003V29.4955V29.4907V29.486V29.4812V29.4765V29.4717V29.4669V29.4622V29.4574V29.4527V29.4479V29.4431V29.4384V29.4336V29.4289V29.4241V29.4193V29.4146V29.4098V29.405V29.4003V29.3955V29.3908V29.386V29.3812V29.3765V29.3717V29.367V29.3622V29.3574V29.3527V29.3479V29.3432V29.3384V29.3336V29.3289V29.3241V29.3194V29.3146V29.3098V29.3051V29.3003V29.2956V29.2908V29.286V29.2813V29.2765V29.2717V29.267V29.2622V29.2575V29.2527V29.2479V29.2432V29.2384V29.2337V29.2289V29.2241V29.2194V29.2146V29.2099V29.2051V29.2003V29.1956V29.1908V29.1861V29.1813V29.1765V29.1718V29.167V29.1623V29.1575V29.1527V29.148V29.1432V29.1385V29.1337V29.1289V29.1242V29.1194V29.1146V29.1099V29.1051C21.8879 28.8432 21.7916 28.6441 21.7515 28.5664C21.6995 28.4656 21.6397 28.3798 21.5911 28.3159C21.4925 28.1862 21.3756 28.0627 21.2688 27.9601C21.1595 27.8552 21.0387 27.751 20.9209 27.6624C20.8344 27.5974 20.6492 27.4624 20.4324 27.3901C20.3708 27.3695 20.3078 27.3482 20.2433 27.3263L20.2433 27.3263C19.8477 27.1922 19.3985 27.0399 18.8916 26.9497C18.6223 26.9019 18.3834 26.8653 18.163 26.8315L18.1629 26.8315C17.6432 26.7519 17.2269 26.6882 16.7603 26.5297C16.5518 26.4589 16.3272 26.41 16.1708 26.376L16.0964 26.3597C15.91 26.318 15.8153 26.2898 15.7519 26.2605C15.6641 26.2198 15.572 26.1627 15.43 26.0672L15.3788 26.0326C15.2556 25.9492 15.0856 25.8341 14.9042 25.7356C14.1943 25.3502 13.9328 24.7773 13.7292 23.6575C13.7159 23.5842 13.7026 23.5124 13.6895 23.4419C13.6255 23.0964 13.5672 22.7812 13.5375 22.4628C13.5023 22.0856 13.5179 21.7887 13.5871 21.5554C13.6578 21.3166 13.7068 21.065 13.7467 20.846C13.759 20.7785 13.7704 20.7143 13.7815 20.6523L13.7815 20.6522L13.7815 20.6521L13.7815 20.6521L13.7815 20.6519L13.7815 20.6518C13.8091 20.4968 13.8342 20.3553 13.8649 20.2092C13.9537 19.7867 14.0471 19.5617 14.142 19.4458C14.4593 19.0579 14.685 18.6062 14.8536 18.269L14.9008 18.1747C15.0973 17.7843 15.2353 17.5407 15.4029 17.3668C15.5658 17.1976 15.7611 17.0421 16.0159 16.8477L16.0876 16.7932C16.3065 16.6267 16.5712 16.4253 16.8171 16.1957C16.8271 16.1915 16.8441 16.1847 16.8703 16.1755C16.8939 16.1673 16.9197 16.1588 16.9552 16.1473L16.9642 16.1443L16.9644 16.1443C16.9957 16.1341 17.0352 16.1212 17.0751 16.1076C17.164 16.0772 17.2817 16.0339 17.4075 15.971C17.8723 15.7386 18.3429 15.4752 18.783 15.2044C19.4711 14.781 20.4093 14.8867 21.5254 15.2926C21.8469 15.4095 22.1693 15.4714 22.4121 15.518L22.4168 15.5189C22.684 15.5702 22.8687 15.6059 23.041 15.6634C23.2494 15.7328 23.4826 15.7772 23.6345 15.8061L23.694 15.8175C23.7817 15.8345 23.8461 15.8482 23.8994 15.8621C23.9248 15.8687 23.9437 15.8744 23.9573 15.8789C23.9697 15.8831 23.9754 15.8856 23.9759 15.8858L23.9759 15.8858C24.6989 16.2145 25.3535 16.1288 25.8459 16.0073C25.9962 15.9703 26.1698 15.9189 26.3112 15.8771C26.3715 15.8592 26.426 15.8431 26.4702 15.8306C26.6506 15.7795 26.7874 15.7487 26.9107 15.7363C27.3048 15.6969 27.6156 15.5179 27.7846 15.4143C27.9024 15.342 27.9661 15.2995 28.011 15.2695C28.0588 15.2375 28.0853 15.2198 28.1334 15.1955C28.137 15.1942 28.1527 15.1889 28.1871 15.1815C28.2365 15.171 28.2844 15.1639 28.366 15.1518L28.4322 15.1419L28.4458 15.1399C28.645 15.1102 29.0503 15.0496 29.4224 14.7965C29.6598 14.6351 29.8952 14.3912 30.01 14.0426C30.126 13.6908 30.0766 13.3615 29.9834 13.1116C29.8184 12.6696 29.466 12.3355 29.2269 12.1342C28.7385 11.7231 28.1079 11.3754 27.8813 11.2504L27.8696 11.244L27.8629 11.2365C27.8453 11.2163 27.8277 11.1943 27.7921 11.1497L27.791 11.1483L27.7909 11.1482C27.7609 11.1106 27.713 11.0506 27.6586 10.9905C27.5485 10.8686 27.3499 10.6741 27.0436 10.5611C26.7197 10.4417 26.3952 10.4558 26.1035 10.5362C25.477 10.7091 24.6815 11.1289 24.2126 11.4047C24.0767 11.4846 23.9751 11.5728 23.9049 11.6406C23.7516 11.6451 23.6267 11.6398 23.5362 11.6233L23.5361 11.6233L23.5305 11.6221L23.5263 11.6211C23.5194 11.6195 23.5101 11.617 23.4983 11.6136C23.4744 11.6066 23.4443 11.5968 23.4091 11.5837C23.3379 11.5572 23.2587 11.5223 23.1831 11.4828C23.1059 11.4424 23.0472 11.4049 23.0102 11.3768L23.0024 11.3708C22.7349 10.9745 22.3677 10.6807 21.9146 10.548C21.4587 10.4146 21.0197 10.4745 20.6629 10.5991C19.9788 10.838 19.4045 11.3753 19.0691 11.8936C19.0257 11.9606 18.9379 12.0471 18.7021 12.2415L18.6568 12.2787C18.4998 12.4075 18.273 12.5935 18.0691 12.8244C18.0024 12.832 17.9085 12.8369 17.7843 12.8358C17.6118 12.8343 17.4266 12.8221 17.2336 12.8081L17.176 12.8039L17.176 12.8039L17.0935 12.7979C16.677 11.9647 16.464 11.5277 16.4478 11.0261C16.4338 10.5918 16.3476 10.0745 16.1652 9.60874C16.1641 9.58865 16.1627 9.55287 16.1632 9.49639L16.1642 9.43386C16.1655 9.35479 16.1676 9.22873 16.1666 9.13923C16.1649 8.98742 16.1562 8.78748 16.1168 8.56608C16.1168 8.56618 16.1168 8.56603 16.1167 8.56562C16.1161 8.56069 16.1107 8.51822 16.1044 8.40356L16.1017 8.35021L16.0985 8.28506L16.0985 8.28487C16.094 8.19038 16.0882 8.06858 16.0833 7.98896C16.0737 7.83383 16.0577 7.63356 16.0223 7.43056C15.9901 7.24641 15.9238 6.94445 15.7557 6.64568C15.6796 6.51035 15.4956 6.22902 15.2434 6.0061C15.1892 5.79468 15.0757 5.46211 14.8137 5.15631C14.6721 4.99115 14.5046 4.85413 14.318 4.74998C16.6648 3.7033 19.2644 3.12146 22 3.12146C30.7484 3.12146 38.107 9.07214 40.2488 17.1466ZM43.8785 22C43.8785 34.0832 34.0832 43.8785 22 43.8785C9.91682 43.8785 0.12146 34.0832 0.12146 22C0.12146 9.91682 9.91682 0.12146 22 0.12146C34.0832 0.12146 43.8785 9.91682 43.8785 22ZM11.1758 6.83115C11.1758 6.83037 11.1773 6.82118 11.1803 6.80592C11.1773 6.8243 11.1759 6.83193 11.1758 6.83115ZM26.172 12.3286C26.172 12.3285 26.1729 12.3294 26.1747 12.3315L26.172 12.3286ZM22.9856 11.3565L22.9883 11.359C22.9864 11.3574 22.9856 11.3566 22.9856 11.3565ZM18.1551 12.8101C18.1642 12.8066 18.1694 12.8053 18.1698 12.8055C18.1702 12.8057 18.1656 12.8075 18.1551 12.8101ZM33.4207 27.848C33.4209 27.8479 33.4214 27.8541 33.4217 27.8677C33.4206 27.8551 33.4205 27.8482 33.4207 27.848ZM9.41723 10.7783L9.41271 10.7807C9.41575 10.779 9.41724 10.7783 9.41723 10.7783ZM8.03858 10.1198L8.03765 10.1149C8.03769 10.1149 8.03804 10.1164 8.03858 10.1198Z" fill="black"/>
</g>
</svg>
